<svg xmlns="http://www.w3.org/2000/svg" viewBox="0 0 1200 800" width="1200" height="800">
  <defs>
    <linearGradient id="adminHeaderGrad" x1="0%" y1="0%" x2="100%" y2="0%">
      <stop offset="0%" style="stop-color:#e74c3c"/>
      <stop offset="100%" style="stop-color:#c0392b"/>
    </linearGradient>
  </defs>
  
  <!-- 背景 -->
  <rect width="1200" height="800" fill="#f5f7fa"/>
  
  <!-- 顶部导航栏 -->
  <rect width="1200" height="60" fill="url(#adminHeaderGrad)"/>
  <text x="30" y="38" fill="white" font-family="Microsoft YaHei" font-size="18" font-weight="bold">⚙️ 惠电宿舍电费管理系统 - 管理员端</text>
  
  <!-- 用户信息区域 -->
  <rect x="950" y="10" width="230" height="40" rx="20" fill="rgba(255,255,255,0.2)"/>
  <circle cx="980" cy="30" r="15" fill="white"/>
  <text x="980" y="35" text-anchor="middle" fill="#e74c3c" font-size="14">👨‍💼</text>
  <text x="1010" y="35" fill="white" font-family="Microsoft YaHei" font-size="12">管理员</text>
  <text x="1100" y="35" fill="rgba(255,255,255,0.8)" font-family="Microsoft YaHei" font-size="11">退出</text>
  
  <!-- 主内容区域 -->
  <rect x="20" y="80" width="1160" height="700" rx="10" fill="white"/>
  
  <!-- 标签页导航 -->
  <rect x="20" y="80" width="1160" height="50" fill="#ecf0f1"/>
  <rect x="20" y="80" width="150" height="50" fill="white"/>
  <text x="95" y="112" text-anchor="middle" fill="#e74c3c" font-family="Microsoft YaHei" font-size="13" font-weight="bold">学生管理</text>
  <text x="220" y="112" text-anchor="middle" fill="#7f8c8d" font-family="Microsoft YaHei" font-size="13">宿舍管理</text>
  <text x="330" y="112" text-anchor="middle" fill="#7f8c8d" font-family="Microsoft YaHei" font-size="13">充值记录</text>
  <text x="440" y="112" text-anchor="middle" fill="#7f8c8d" font-family="Microsoft YaHei" font-size="13">用电记录</text>
  <text x="550" y="112" text-anchor="middle" fill="#7f8c8d" font-family="Microsoft YaHei" font-size="13">统计报表</text>
  
  <!-- 统计卡片区域 -->
  <rect x="40" y="150" width="270" height="100" rx="10" fill="#3498db"/>
  <text x="60" y="180" fill="rgba(255,255,255,0.8)" font-family="Microsoft YaHei" font-size="12">👥 总学生数</text>
  <text x="175" y="225" text-anchor="middle" fill="white" font-family="Microsoft YaHei" font-size="32" font-weight="bold">156</text>
  
  <rect x="330" y="150" width="270" height="100" rx="10" fill="#27ae60"/>
  <text x="350" y="180" fill="rgba(255,255,255,0.8)" font-family="Microsoft YaHei" font-size="12">🏠 总宿舍数</text>
  <text x="465" y="225" text-anchor="middle" fill="white" font-family="Microsoft YaHei" font-size="32" font-weight="bold">48</text>
  
  <rect x="620" y="150" width="270" height="100" rx="10" fill="#f39c12"/>
  <text x="640" y="180" fill="rgba(255,255,255,0.8)" font-family="Microsoft YaHei" font-size="12">💰 总充值金额</text>
  <text x="755" y="225" text-anchor="middle" fill="white" font-family="Microsoft YaHei" font-size="32" font-weight="bold">¥12,580</text>
  
  <rect x="910" y="150" width="250" height="100" rx="10" fill="#9b59b6"/>
  <text x="930" y="180" fill="rgba(255,255,255,0.8)" font-family="Microsoft YaHei" font-size="12">⚡ 总用电量</text>
  <text x="1035" y="225" text-anchor="middle" fill="white" font-family="Microsoft YaHei" font-size="32" font-weight="bold">8,256 kWh</text>
  
  <!-- 学生列表表格 -->
  <rect x="40" y="270" width="700" height="380" rx="10" fill="#f8f9fa" stroke="#e9ecef" stroke-width="1"/>
  <text x="60" y="300" fill="#2c3e50" font-family="Microsoft YaHei" font-size="16" font-weight="bold">📋 学生列表</text>
  
  <!-- 表格头部 -->
  <rect x="60" y="320" width="660" height="40" fill="#34495e" rx="5"/>
  <text x="90" y="347" fill="white" font-family="Microsoft YaHei" font-size="11" font-weight="bold">学号</text>
  <text x="180" y="347" fill="white" font-family="Microsoft YaHei" font-size="11" font-weight="bold">姓名</text>
  <text x="270" y="347" fill="white" font-family="Microsoft YaHei" font-size="11" font-weight="bold">宿舍</text>
  <text x="360" y="347" fill="white" font-family="Microsoft YaHei" font-size="11" font-weight="bold">余额</text>
  <text x="450" y="347" fill="white" font-family="Microsoft YaHei" font-size="11" font-weight="bold">度数</text>
  <text x="540" y="347" fill="white" font-family="Microsoft YaHei" font-size="11" font-weight="bold">状态</text>
  <text x="630" y="347" fill="white" font-family="Microsoft YaHei" font-size="11" font-weight="bold">操作</text>
  
  <!-- 表格行 -->
  <rect x="60" y="365" width="660" height="35" fill="white"/>
  <text x="90" y="388" fill="#2c3e50" font-family="Microsoft YaHei" font-size="11">2021001</text>
  <text x="180" y="388" fill="#2c3e50" font-family="Microsoft YaHei" font-size="11">张三</text>
  <text x="270" y="388" fill="#2c3e50" font-family="Microsoft YaHei" font-size="11">101</text>
  <text x="360" y="388" fill="#27ae60" font-family="Microsoft YaHei" font-size="11">¥128.50</text>
  <text x="450" y="388" fill="#2c3e50" font-family="Microsoft YaHei" font-size="11">256.8</text>
  <rect x="530" y="375" width="40" height="20" rx="10" fill="#27ae60"/>
  <text x="550" y="390" text-anchor="middle" fill="white" font-family="Microsoft YaHei" font-size="9">正常</text>
  <text x="630" y="388" fill="#3498db" font-family="Microsoft YaHei" font-size="11">编辑</text>
  
  <rect x="60" y="402" width="660" height="35" fill="#f8f9fa"/>
  <text x="90" y="425" fill="#2c3e50" font-family="Microsoft YaHei" font-size="11">2021002</text>
  <text x="180" y="425" fill="#2c3e50" font-family="Microsoft YaHei" font-size="11">李四</text>
  <text x="270" y="425" fill="#2c3e50" font-family="Microsoft YaHei" font-size="11">102</text>
  <text x="360" y="425" fill="#e74c3c" font-family="Microsoft YaHei" font-size="11">¥15.20</text>
  <text x="450" y="425" fill="#2c3e50" font-family="Microsoft YaHei" font-size="11">30.4</text>
  <rect x="530" y="412" width="40" height="20" rx="10" fill="#e74c3c"/>
  <text x="550" y="427" text-anchor="middle" fill="white" font-family="Microsoft YaHei" font-size="9">欠费</text>
  <text x="630" y="425" fill="#3498db" font-family="Microsoft YaHei" font-size="11">编辑</text>
  
  <rect x="60" y="439" width="660" height="35" fill="white"/>
  <text x="90" y="462" fill="#2c3e50" font-family="Microsoft YaHei" font-size="11">2021003</text>
  <text x="180" y="462" fill="#2c3e50" font-family="Microsoft YaHei" font-size="11">王五</text>
  <text x="270" y="462" fill="#2c3e50" font-family="Microsoft YaHei" font-size="11">103</text>
  <text x="360" y="462" fill="#27ae60" font-family="Microsoft YaHei" font-size="11">¥256.80</text>
  <text x="450" y="462" fill="#2c3e50" font-family="Microsoft YaHei" font-size="11">513.6</text>
  <rect x="530" y="449" width="40" height="20" rx="10" fill="#27ae60"/>
  <text x="550" y="464" text-anchor="middle" fill="white" font-family="Microsoft YaHei" font-size="9">正常</text>
  <text x="630" y="462" fill="#3498db" font-family="Microsoft YaHei" font-size="11">编辑</text>
  
  <!-- 操作按钮 -->
  <rect x="60" y="590" width="100" height="40" rx="8" fill="#27ae60"/>
  <text x="110" y="616" text-anchor="middle" fill="white" font-family="Microsoft YaHei" font-size="12" font-weight="bold">添加学生</text>
  <rect x="180" y="590" width="100" height="40" rx="8" fill="#3498db"/>
  <text x="230" y="616" text-anchor="middle" fill="white" font-family="Microsoft YaHei" font-size="12" font-weight="bold">批量充值</text>
  <rect x="300" y="590" width="100" height="40" rx="8" fill="#f39c12"/>
  <text x="350" y="616" text-anchor="middle" fill="white" font-family="Microsoft YaHei" font-size="12" font-weight="bold">导出数据</text>
  
  <!-- 充值趋势图表 -->
  <rect x="760" y="270" width="400" height="380" rx="10" fill="#f8f9fa" stroke="#e9ecef" stroke-width="1"/>
  <text x="780" y="300" fill="#2c3e50" font-family="Microsoft YaHei" font-size="16" font-weight="bold">📈 充值趋势</text>
  <rect x="780" y="320" width="360" height="200" fill="white" stroke="#dee2e6" stroke-width="1"/>
  <!-- 简化的图表线条 -->
  <polyline points="800,480 860,460 920,470 980,440 1040,450 1100,420" fill="none" stroke="#27ae60" stroke-width="3"/>
  <circle cx="800" cy="480" r="4" fill="#27ae60"/>
  <circle cx="860" cy="460" r="4" fill="#27ae60"/>
  <circle cx="920" cy="470" r="4" fill="#27ae60"/>
  <circle cx="980" cy="440" r="4" fill="#27ae60"/>
  <circle cx="1040" cy="450" r="4" fill="#27ae60"/>
  <circle cx="1100" cy="420" r="4" fill="#27ae60"/>
  
  <!-- 快捷操作 -->
  <rect x="780" y="540" width="170" height="90" rx="8" fill="#3498db"/>
  <text x="865" y="575" text-anchor="middle" fill="white" font-family="Microsoft YaHei" font-size="24">💰</text>
  <text x="865" y="610" text-anchor="middle" fill="white" font-family="Microsoft YaHei" font-size="12" font-weight="bold">学生充值</text>
  
  <rect x="970" y="540" width="170" height="90" rx="8" fill="#9b59b6"/>
  <text x="1055" y="575" text-anchor="middle" fill="white" font-family="Microsoft YaHei" font-size="24">📊</text>
  <text x="1055" y="610" text-anchor="middle" fill="white" font-family="Microsoft YaHei" font-size="12" font-weight="bold">统计报表</text>
</svg>